#!OML:ASF H:\ManfredETheater\Project 1\Capture day 1\Session 1\subject.ASF
:FULLY-SPECIFIED
:DEGREES
76
root -9.20832 15.5548 1.85674 -176.99 21.1738 -191.648
lowerback 15.9732 2.18038 -7.32741
upperback 0.133813 1.52765 -2.76772
thorax -8.9626 1.08695 0.777007
lowerneck -13.355 -8.17383 -9.19254
upperneck 7.49872 -10.3238 9.03039
head 5.38287 -4.74521 3.36204
rclavicle -5.56597e-015 2.14687e-014
rhumerus -48.9283 8.33978 -96.8901
rradius 105.194
rwrist -7.16047
rhand -27.5945 14.5249
rfingers 7.12502
rthumb -0.994303 -15.4525
lclavicle -5.56597e-015 2.14687e-014
lhumerus -63.2595 -4.07345 100.208
lradius 114.477
lwrist 16.0708
lhand -15.033 -10.138
lfingers 7.12502
lthumb 11.1329 19.5467
rfemur -27.7584 -14.3008 23.4765
rtibia 92.3291
rfoot -15.6468 -13.2765
rtoes -23.3221
lfemur -35.2384 -3.98131 -4.25765
ltibia 49.9154
lfoot -23.0922 -4.33157
ltoes -34.675
77
root -9.125 15.5177 1.42199 -177.705 22.2532 -192.836
lowerback 16.437 1.82556 -8.31058
upperback 0.17523 0.841464 -2.96719
thorax -9.14217 0.815503 1.26192
lowerneck -14.021 -7.65117 -8.75085
upperneck 7.58952 -9.61542 8.77922
head 5.42059 -4.38312 3.27196
rclavicle -1.74931e-014 2.10712e-014
rhumerus -49.8141 7.89988 -97.6078
rradius 104.559
rwrist -7.66981
rhand -28.0578 14.091
rfingers 7.12502
rthumb -1.44174 -15.8839
lclavicle -1.74931e-014 2.10712e-014
lhumerus -61.4545 -5.07037 100.494
lradius 114.862
lwrist 16.3819
lhand -15.3085 -9.88742
lfingers 7.12502
lthumb 10.8672 19.8114
rfemur -31.0265 -15.5063 22.7397
rtibia 94.3824
rfoot -16.3578 -13.1844
rtoes -24.6815
lfemur -33.443 -3.31183 -5.97931
ltibia 51.0279
lfoot -25.2271 -3.8022
ltoes -34.5822
78
root -9.03623 15.4884 0.987111 -178.213 23.254 -193.78
lowerback 16.7143 1.42884 -8.96601
upperback 0.217022 0.171719 -3.13252
thorax -9.19649 0.533365 1.60635
lowerneck -14.7268 -7.1466 -8.29645
upperneck 7.69236 -8.93552 8.51111
head 5.47422 -4.03523 3.17108
rclavicle 2.90226e-014 3.97569e-015
rhumerus -50.7832 7.44179 -98.1597
rradius 103.91
rwrist -8.13544
rhand -28.469 13.706
rfingers 7.12502
rthumb -1.83888 -16.2658
lclavicle 2.90226e-014 3.97569e-015
lhumerus -59.5604 -6.26827 100.503
lradius 115.293
lwrist 16.4367
lhand -15.5808 -9.68148
lfingers 7.12502
lthumb 10.6045 20.031
rfemur -34.5636 -16.5796 22.6121
rtibia 95.8574
rfoot -16.9609 -13.0271
rtoes -26.3016
lfemur -31.657 -2.81417 -7.4032
ltibia 51.8535
lfoot -27.131 -3.08667
ltoes -34.5281
79
root -8.94064 15.4693 0.549813 -178.529 24.2003 -194.446
lowerback 16.8344 1.00691 -9.27957
upperback 0.254227 -0.454693 -3.24282
thorax -9.16105 0.250825 1.81351
lowerneck -15.427 -6.66537 -7.85402
upperneck 7.81383 -8.29065 8.22389
head 5.53983 -3.70728 3.06338
rclavicle -2.33572e-014 -3.77691e-014
rhumerus -51.8573 6.99906 -98.5229
rradius 103.31
rwrist -8.40165
rhand -28.7798 13.4615
rfingers 7.12502
rthumb -2.13901 -16.5075
lclavicle -2.33572e-014 -3.77691e-014
lhumerus -57.6312 -7.55078 100.229
lradius 115.776
lwrist 16.2093
lhand -15.8546 -9.53503
lfingers 7.12502
lthumb 10.3404 20.1907
rfemur -38.2384 -17.4448 23.0867
rtibia 96.6945
rfoot -17.4351 -12.8568
rtoes -28.0363
lfemur -29.7941 -2.51113 -8.51846
ltibia 52.3523
lfoot -28.8571 -2.17281
ltoes -34.7352
80
root -8.83619 15.4621 0.108756 -178.705 25.1149 -194.856
lowerback 16.8524 0.58154 -9.3041
upperback 0.285243 -1.02268 -3.28628
thorax -9.07918 -0.0217883 1.91849
lowerneck -16.0841 -6.20945 -7.44358
upperneck 7.96044 -7.68131 7.91115
head 5.6136 -3.40199 2.9508
rclavicle -2.38542e-015 -5.1684e-015
rhumerus -53.0498 6.60948 -98.6878
rradius 102.818
rwrist -8.38093
rhand -28.968 13.4054
rfingers 7.12502
rthumb -2.32084 -16.5617
lclavicle -2.38542e-015 -5.1684e-015
lhumerus -55.7012 -8.78433 99.6947
lradius 116.31
lwrist 15.7466
lhand -16.0978 -9.44454
lfingers 7.12502
lthumb 10.1058 20.2928
rfemur -41.8865 -18.0555 24.0539
rtibia 96.8652
rfoot -17.7929 -12.6995
rtoes -29.7732
lfemur -27.7668 -2.40861 -9.37268
ltibia 52.488
lfoot -30.3739 -1.08954
ltoes -35.0806
81
root -8.721 15.4674 -0.334915 -178.782 26.0077 -195.077
lowerback 16.8158 0.171638 -9.14963
upperback 0.297215 -1.53389 -3.25736
thorax -8.99574 -0.277857 1.9873
lowerneck -16.664 -5.77784 -7.07822
upperneck 8.12871 -7.10336 7.56591
head 5.68845 -3.11948 2.83414
rclavicle -5.62561e-014 -5.12864e-014
rhumerus -54.3634 6.29369 -98.6525
rradius 102.472
rwrist -8.04756
rhand -29.022 13.5627
rfingers 7.12502
rthumb -2.37296 -16.4039
lclavicle -5.62561e-014 -5.12864e-014
lhumerus -53.8009 -9.85213 98.9539
lradius 116.895
lwrist 15.1701
lhand -16.3177 -9.40398
lfingers 7.12502
lthumb 9.8937 20.3435
rfemur -45.4013 -18.4045 25.3585
rtibia 96.3823
rfoot -18.0395 -12.5805
rtoes -31.4006
lfemur -25.5617 -2.47754 -10.0548
ltibia 52.2549
lfoot -31.5958 0.139231
ltoes -35.5924
82
root -8.59315 15.4851 -0.780262 -178.85 26.8762 -195.292
lowerback 16.7621 -0.205168 -9.02521
upperback 0.27911 -2.0081 -3.18429
thorax -8.93886 -0.51431 2.10992
lowerneck -17.1593 -5.36356 -6.7593
upperneck 8.32153 -6.54536 7.1851
head 5.76294 -2.85474 2.7136
rclavicle -3.17062e-014 -4.57205e-014
rhumerus -55.8025 6.05807 -98.433
rradius 102.312
rwrist -7.47207
rhand -28.9672 13.9103
rfingers 7.12502
rthumb -2.32001 -16.0568
lclavicle -3.17062e-014 -4.57205e-014
lhumerus -51.9564 -10.6674 98.0672
lradius 117.53
lwrist 14.637
lhand -16.5088 -9.40505
lfingers 7.12502
lthumb 9.70928 20.3512
rfemur -48.707 -18.5323 26.7234
rtibia 95.2941
rfoot -18.23 -12.4637
rtoes -32.8643
lfemur -23.1886 -2.69219 -10.7674
ltibia 51.6676
lfoot -32.4659 1.43801
ltoes -36.1587
83
root -8.45129 15.5144 -1.22626 -178.978 27.7423 -195.652
lowerback 16.7007 -0.529801 -9.09954
upperback 0.223484 -2.45209 -3.09575
thorax -8.91407 -0.72511 2.35093
lowerneck -17.5834 -4.96411 -6.47603
upperneck 8.54107 -6.00239 6.75955
head 5.83882 -2.60539 2.58444
rclavicle -4.57205e-015 -7.55382e-015
rhumerus -57.3552 5.89768 -98.0508
rradius 102.352
rwrist -6.78997
rhand -28.8662 14.3598
rfingers 7.12502
rthumb -2.22252 -15.6084
lclavicle -4.57205e-015 -7.55382e-015
lhumerus -50.1906 -11.204 97.1064
lradius 118.22
lwrist 14.3237
lhand -16.7089 -9.41597
lfingers 7.12502
lthumb 9.51625 20.3491
rfemur -51.7658 -18.464 27.9278
rtibia 93.6553
rfoot -18.3689 -12.3225
rtoes -34.1019
lfemur -20.6806 -2.99815 -11.6654
ltibia 50.7664
lfoot -32.9081 2.72141
ltoes -36.7608
84
root -8.29523 15.5538 -1.67202 -179.139 28.5828 -196.17
lowerback 16.5999 -0.816982 -9.37968
upperback 0.12579 -2.8833 -2.9983
thorax -8.90222 -0.918775 2.71053
lowerneck -17.958 -4.57295 -6.20661
upperneck 8.78043 -5.46705 6.28982
head 5.9165 -2.36643 2.44361
rclavicle -4.39314e-014 1.98785e-015
rhumerus -58.9861 5.79423 -97.5428
rradius 102.581
rwrist -6.1711
rhand -28.8009 14.8057
rfingers 7.12502
rthumb -2.15938 -15.1631
lclavicle -4.39314e-014 1.98785e-015
lhumerus -48.5264 -11.4702 96.124
lradius 118.973
lwrist 14.3726
lhand -16.8987 -9.39564
lfingers 7.12502
lthumb 9.33307 20.3778
rfemur -54.5799 -18.239 28.9257
rtibia 91.5113
rfoot -18.4625 -12.1439
rtoes -35.0946
lfemur -18.1335 -3.35921 -12.7438
ltibia 49.6107
lfoot -32.8945 3.87578
ltoes -37.3925
85
root -8.12519 15.6033 -2.11866 -179.314 29.4314 -196.764
lowerback 16.4522 -1.06699 -9.77497
upperback 7.32303e-005 -3.28278 -2.89093
thorax -8.88633 -1.09143 3.13411
lowerneck -18.2967 -4.18825 -5.93297
upperneck 9.02457 -4.93981 5.78813
head 5.99365 -2.13601 2.29179
rclavicle -4.44284e-014 -2.06736e-014
rhumerus -60.6438 5.71426 -96.9486
rradius 102.956
rwrist -5.77538
rhand -28.7685 15.1992
rfingers 7.12502
rthumb -2.12816 -14.77
lclavicle -4.44284e-014 -2.06736e-014
lhumerus -46.9949 -11.512 95.1604
lradius 119.794
lwrist 14.8349
lhand -17.0981 -9.34802
lfingers 7.12502
lthumb 9.14069 20.4339
rfemur -57.0713 -17.8485 29.7464
rtibia 88.8839
rfoot -18.5127 -11.9184
rtoes -35.8804
lfemur -15.5703 -3.70303 -13.9103
ltibia 48.2679
lfoot -32.4085 4.79235
ltoes -38.0548
86
root -7.94221 15.6615 -2.56654 -179.495 30.2944 -197.396
lowerback 16.2535 -1.28565 -10.2136
upperback -0.144259 -3.6434 -2.78806
thorax -8.85818 -1.24359 3.56375
lowerneck -18.5875 -3.81189 -5.6507
upperneck 9.25184 -4.42673 5.27988
head 6.06268 -1.9148 2.13581
rclavicle 4.69132e-014 4.65156e-014
rhumerus -62.2883 5.61249 -96.3145
rradius 103.426
rwrist -5.69754
rhand -28.8365 15.4696
rfingers 7.12502
rthumb -2.19377 -14.4989
lclavicle 4.69132e-014 4.65156e-014
lhumerus -45.639 -11.398 94.2415
lradius 120.685
lwrist 15.6725
lhand -17.2771 -9.27138
lfingers 7.12502
lthumb 8.96794 20.518
rfemur -59.1979 -17.3244 30.3966
rtibia 85.8082
rfoot -18.5142 -11.6113
rtoes -36.5494
lfemur -13.0258 -3.9888 -15.1093
ltibia 46.806
lfoot -31.4537 5.3704
ltoes -38.7012
87
root -7.74684 15.7275 -3.01634 -179.705 31.1833 -198.047
lowerback 16.0079 -1.47082 -10.6501
upperback -0.289999 -3.95219 -2.70563
thorax -8.8074 -1.37209 3.95352
lowerneck -18.8191 -3.44967 -5.36967
upperneck 9.44851 -3.93738 4.79575
head 6.11867 -1.70504 1.98607
rclavicle 4.67144e-014 -2.82274e-014
rhumerus -63.8877 5.44672 -95.668
rradius 103.942
rwrist -5.92475
rhand -28.99 15.6181
rfingers 7.12502
rthumb -2.34206 -14.3488
lclavicle 4.67144e-014 -2.82274e-014
lhumerus -44.4892 -11.2023 93.3782
lradius 121.628
lwrist 16.7489
lhand -17.44 -9.17368
lfingers 7.12502
lthumb 8.81074 20.6224
rfemur -60.903 -16.7037 30.8717
rtibia 82.3233
rfoot -18.4462 -11.1783
rtoes -37.236
lfemur -10.5031 -4.16927 -16.3052
ltibia 45.2832
lfoot -30.0311 5.52537
ltoes -39.328
